<?xml version="1.0" encoding="UTF-8" standalone="no"?>
<svg
   xmlns:dc="http://purl.org/dc/elements/1.1/"
   xmlns:cc="http://creativecommons.org/ns#"
   xmlns:rdf="http://www.w3.org/1999/02/22-rdf-syntax-ns#"
   xmlns:svg="http://www.w3.org/2000/svg"
   xmlns="http://www.w3.org/2000/svg"
   xmlns:xlink="http://www.w3.org/1999/xlink"
   xmlns:sodipodi="http://sodipodi.sourceforge.net/DTD/sodipodi-0.dtd"
   xmlns:inkscape="http://www.inkscape.org/namespaces/inkscape"
   width="500.09137"
   height="606.72284"
   viewBox="0 0 400.0731 485.37827"
   version="1.1"
   id="svg8705"
   inkscape:version="0.48.4 r9939"
   sodipodi:docname="poul-logo.svg">
  <metadata
     id="metadata9143">
    <rdf:RDF>
      <cc:Work
         rdf:about="">
        <dc:format>image/svg+xml</dc:format>
        <dc:type
           rdf:resource="http://purl.org/dc/dcmitype/StillImage" />
        <dc:title></dc:title>
      </cc:Work>
    </rdf:RDF>
  </metadata>
  <defs
     id="defs9141">
    <linearGradient
       id="linearGradient4707">
      <stop
         style="stop-color:#807f7f;stop-opacity:1;"
         offset="0"
         id="stop4709" />
      <stop
         id="stop4719"
         offset="0.23223536"
         style="stop-color:#d9d8d8;stop-opacity:1;" />
      <stop
         id="stop4717"
         offset="0.50586128"
         style="stop-color:#ffffff;stop-opacity:1;" />
      <stop
         id="stop4715"
         offset="0.81664789"
         style="stop-color:#949393;stop-opacity:1;" />
      <stop
         style="stop-color:#4f4d4d;stop-opacity:1;"
         offset="1"
         id="stop4711" />
    </linearGradient>
    <linearGradient
       id="linearGradient4689">
      <stop
         style="stop-color:#393636;stop-opacity:1;"
         offset="0"
         id="stop4691" />
      <stop
         id="stop4705"
         offset="0.25"
         style="stop-color:#b1b0b0;stop-opacity:1;" />
      <stop
         id="stop4701"
         offset="0.5"
         style="stop-color:#fcfcfc;stop-opacity:1;" />
      <stop
         style="stop-color:#e3e3e3;stop-opacity:1;"
         offset="0.75"
         id="stop4703" />
      <stop
         style="stop-color:#494646;stop-opacity:1;"
         offset="1"
         id="stop4693" />
    </linearGradient>
    <linearGradient
       id="linearGradient12193">
      <stop
         style="stop-color:#000000;stop-opacity:1;"
         offset="0"
         id="stop12195" />
      <stop
         style="stop-color:#ececec;stop-opacity:1;"
         offset="1"
         id="stop12197" />
    </linearGradient>
    <linearGradient
       id="linearGradient12184">
      <stop
         style="stop-color:#a7a7a7;stop-opacity:1;"
         offset="0"
         id="stop12186" />
      <stop
         style="stop-color:#151515;stop-opacity:1;"
         offset="1"
         id="stop12188" />
    </linearGradient>
    <linearGradient
       id="linearGradient12175">
      <stop
         style="stop-color:#fff6d4;stop-opacity:1;"
         offset="0"
         id="stop12177" />
      <stop
         style="stop-color:#ffab02;stop-opacity:1;"
         offset="1"
         id="stop12179" />
    </linearGradient>
    <linearGradient
       id="linearGradient12166">
      <stop
         style="stop-color:#ffa500;stop-opacity:1;"
         offset="0"
         id="stop12168" />
      <stop
         style="stop-color:#ffe200;stop-opacity:1;"
         offset="1"
         id="stop12170" />
    </linearGradient>
    <linearGradient
       id="linearGradient12157">
      <stop
         style="stop-color:#fffbd3;stop-opacity:1;"
         offset="0"
         id="stop12159" />
      <stop
         style="stop-color:#ffb204;stop-opacity:1;"
         offset="1"
         id="stop12161" />
    </linearGradient>
    <linearGradient
       id="linearGradient12148">
      <stop
         style="stop-color:#ffa500;stop-opacity:1;"
         offset="0"
         id="stop12150" />
      <stop
         style="stop-color:#ffeb00;stop-opacity:1;"
         offset="1"
         id="stop12152" />
    </linearGradient>
    <linearGradient
       id="linearGradient12139">
      <stop
         style="stop-color:#fefefe;stop-opacity:1;"
         offset="0"
         id="stop12141" />
      <stop
         style="stop-color:#f0f0f1;stop-opacity:1;"
         offset="1"
         id="stop12143" />
    </linearGradient>
    <linearGradient
       id="linearGradient12083">
      <stop
         style="stop-color:#f7f7f7;stop-opacity:1;"
         offset="0"
         id="stop12085" />
      <stop
         style="stop-color:#d5d6d8;stop-opacity:1;"
         offset="1"
         id="stop12087" />
    </linearGradient>
    <linearGradient
       id="linearGradient12075">
      <stop
         style="stop-color:#c5c7c9;stop-opacity:1;"
         offset="0"
         id="stop12077" />
      <stop
         style="stop-color:#ffffff;stop-opacity:1;"
         offset="1"
         id="stop12079" />
    </linearGradient>
    <linearGradient
       id="linearGradient12045">
      <stop
         style="stop-color:#0a0a0a;stop-opacity:1;"
         offset="0"
         id="stop12047" />
      <stop
         style="stop-color:#bebebe;stop-opacity:1;"
         offset="1"
         id="stop12049" />
    </linearGradient>
    <linearGradient
       id="linearGradient12036">
      <stop
         style="stop-color:#151515;stop-opacity:1;"
         offset="0"
         id="stop12038" />
      <stop
         style="stop-color:#cbcbcb;stop-opacity:1;"
         offset="1"
         id="stop12040" />
    </linearGradient>
    <linearGradient
       id="linearGradient12027">
      <stop
         style="stop-color:#ffa900;stop-opacity:1;"
         offset="0"
         id="stop12029" />
      <stop
         style="stop-color:#ffe100;stop-opacity:1;"
         offset="1"
         id="stop12031" />
    </linearGradient>
    <linearGradient
       id="linearGradient11510">
      <stop
         style="stop-color:#ffecc4;stop-opacity:1;"
         offset="0"
         id="stop11512" />
      <stop
         style="stop-color:#ffcb38;stop-opacity:1;"
         offset="1"
         id="stop11514" />
    </linearGradient>
    <linearGradient
       id="linearGradient11474">
      <stop
         style="stop-color:#cecece;stop-opacity:1;"
         offset="0"
         id="stop11476" />
      <stop
         style="stop-color:#101010;stop-opacity:1;"
         offset="1"
         id="stop11478" />
    </linearGradient>
    <linearGradient
       inkscape:collect="always"
       xlink:href="#linearGradient11474"
       id="linearGradient11480"
       x1="261.00827"
       y1="24.189529"
       x2="261.73743"
       y2="110.06302"
       gradientUnits="userSpaceOnUse"
       gradientTransform="matrix(0.82990096,0,0,0.82211203,-25.977393,-11.71035)" />
    <linearGradient
       inkscape:collect="always"
       xlink:href="#linearGradient11510"
       id="linearGradient11516"
       x1="249.18758"
       y1="153.32567"
       x2="249.19812"
       y2="182.95203"
       gradientUnits="userSpaceOnUse"
       gradientTransform="matrix(0.8,0,0,0.8,-18.091483,-11.159622)" />
    <linearGradient
       inkscape:collect="always"
       xlink:href="#linearGradient12027"
       id="linearGradient12033"
       x1="250.9268"
       y1="149.41319"
       x2="253.08119"
       y2="224.98186"
       gradientUnits="userSpaceOnUse"
       gradientTransform="matrix(0.8,0,0,0.8,-18.091483,-11.159622)" />
    <linearGradient
       inkscape:collect="always"
       xlink:href="#linearGradient12036"
       id="linearGradient12042"
       x1="292.75858"
       y1="141.96603"
       x2="292.40451"
       y2="122.21513"
       gradientUnits="userSpaceOnUse"
       gradientTransform="matrix(0.8,0,0,0.8,-18.091483,-11.159622)" />
    <linearGradient
       inkscape:collect="always"
       xlink:href="#linearGradient12045"
       id="linearGradient12051"
       x1="216.89984"
       y1="143.25977"
       x2="216.13011"
       y2="126.51444"
       gradientUnits="userSpaceOnUse"
       gradientTransform="matrix(0.8,0,0,0.8,-18.091483,-11.159622)" />
    <linearGradient
       inkscape:collect="always"
       xlink:href="#linearGradient12075"
       id="linearGradient12081"
       x1="245.3347"
       y1="201.48813"
       x2="245.3131"
       y2="548.81635"
       gradientUnits="userSpaceOnUse"
       gradientTransform="matrix(0.8,0,0,0.8,-18.091483,-11.159622)" />
    <linearGradient
       inkscape:collect="always"
       xlink:href="#linearGradient12083"
       id="linearGradient12089"
       x1="181.75888"
       y1="201.84259"
       x2="181.69289"
       y2="239.67885"
       gradientUnits="userSpaceOnUse" />
    <linearGradient
       inkscape:collect="always"
       xlink:href="#linearGradient12148"
       id="linearGradient12154"
       x1="197.54131"
       y1="591.07709"
       x2="41.968571"
       y2="471.71298"
       gradientUnits="userSpaceOnUse" />
    <linearGradient
       inkscape:collect="always"
       xlink:href="#linearGradient12157"
       id="linearGradient12163"
       x1="106.62389"
       y1="444.51471"
       x2="175.60527"
       y2="562.16138"
       gradientUnits="userSpaceOnUse"
       gradientTransform="matrix(0.8,0,0,0.8,-18.091483,-11.159622)" />
    <linearGradient
       inkscape:collect="always"
       xlink:href="#linearGradient12166"
       id="linearGradient12172"
       x1="377.16766"
       y1="599.14624"
       x2="470.21854"
       y2="448.55637"
       gradientUnits="userSpaceOnUse"
       gradientTransform="matrix(0.8,0,0,0.8,-18.091483,-11.159622)" />
    <linearGradient
       inkscape:collect="always"
       xlink:href="#linearGradient12175"
       id="linearGradient12181"
       x1="406.68674"
       y1="452.24393"
       x2="381.15872"
       y2="589.64148"
       gradientUnits="userSpaceOnUse"
       gradientTransform="matrix(0.8,0,0,0.8,-18.091483,-11.159622)" />
    <linearGradient
       inkscape:collect="always"
       xlink:href="#linearGradient12184"
       id="linearGradient12190"
       x1="173.05182"
       y1="463.33633"
       x2="190.56346"
       y2="499.83252"
       gradientUnits="userSpaceOnUse"
       gradientTransform="matrix(0.8,0,0,0.8,-18.091483,-11.159622)" />
    <linearGradient
       inkscape:collect="always"
       xlink:href="#linearGradient12193"
       id="linearGradient12199"
       x1="417.6734"
       y1="453.21848"
       x2="417.4006"
       y2="421.87466"
       gradientUnits="userSpaceOnUse"
       gradientTransform="matrix(0.8,0,0,0.8,-18.091483,-11.159622)" />
    <linearGradient
       inkscape:collect="always"
       xlink:href="#linearGradient12148"
       id="linearGradient3970"
       gradientUnits="userSpaceOnUse"
       x1="197.54131"
       y1="591.07709"
       x2="41.968571"
       y2="471.71298" />
    <linearGradient
       inkscape:collect="always"
       xlink:href="#linearGradient12148"
       id="linearGradient3992"
       gradientUnits="userSpaceOnUse"
       x1="197.54131"
       y1="591.07709"
       x2="41.968571"
       y2="471.71298"
       gradientTransform="matrix(0.8,0,0,0.8,-18.091483,-11.159622)" />
    <linearGradient
       inkscape:collect="always"
       xlink:href="#linearGradient4689"
       id="linearGradient4699"
       x1="249.17715"
       y1="592.58276"
       x2="341.52505"
       y2="592.58276"
       gradientUnits="userSpaceOnUse"
       gradientTransform="matrix(0.8,0,0,0.8,-18.091483,-11.159622)" />
    <linearGradient
       inkscape:collect="always"
       xlink:href="#linearGradient4707"
       id="linearGradient4713"
       x1="332.25974"
       y1="583.13666"
       x2="249.21107"
       y2="583.02936"
       gradientUnits="userSpaceOnUse"
       gradientTransform="matrix(0.8,0,0,0.8,-18.091483,-11.159622)" />
  </defs>
  <sodipodi:namedview
     pagecolor="#ffffff"
     bordercolor="#666666"
     borderopacity="1"
     objecttolerance="10"
     gridtolerance="10"
     guidetolerance="10"
     inkscape:pageopacity="0"
     inkscape:pageshadow="2"
     inkscape:window-width="1600"
     inkscape:window-height="844"
     id="namedview9139"
     showgrid="false"
     inkscape:zoom="0.41171429"
     inkscape:cx="263.30357"
     inkscape:cy="-34.081218"
     inkscape:window-x="0"
     inkscape:window-y="27"
     inkscape:window-maximized="1"
     inkscape:current-layer="svg8705"
     fit-margin-top="0"
     fit-margin-left="0"
     fit-margin-right="0"
     fit-margin-bottom="0" />
  <path
     style="fill:url(#linearGradient12172);fill-opacity:1"
     d="m 280.30852,336.04038 c -1.11187,0.0321 -2.22313,0.22187 -3.35,0.625 -3.6,2.43 -4.015,7.305 -4.825,11.225 -1.08,10.21 0.315,20.495 0.475,30.725 0.09,7.04 1.365,14.145 -0.075,21.125 -1.21,6.67 -2.635,13.32 -4.075,19.95 -1.82,9.62 -5.08,19.205 -4.05,29.125 0.63,6.27 1.94,12.74 5.35,18.15 4.15,5.89 11.735,7.495 18.425,8.525 6.46,1.09 13.09,0.04 19.15,-2.35 6.59,-2.44 12.32,-6.73 16.85,-12.05 7.97,-8.11 17.485,-14.465 26.275,-21.625 5.1,-4.33 11.425,-6.685 17.525,-9.225 8.17,-3.95 18.065,-5.9 23.875,-13.45 3.18,-4.21 5.875,-9.505 4.875,-14.925 -3.21,-6.17 -11,-6.745 -15.95,-10.925 -6.39,-5.29 -12.045,-11.63 -16.325,-18.75 -4.48,-7.49 -1.885,-16.835 -5.325,-24.625 -1.71,-3.69 -5.99,-4.025 -9.55,-3.825 -0.93994,2.69347 -2.2651,5.21754 -3.9,7.525 l -5.75,-0.375 -46.5,-7.275 c 0.14656,-0.86705 0.29938,-1.72111 0.5,-2.575 -4.16,-2.23438 -8.80691,-5.13889 -13.625,-5 z"
     id="path8957"
     inkscape:connector-curvature="0" />
  <path
     d="m 235.55852,147.19038 c -4.78,3.92 -11.15,4.98 -16.2,8.5 6.39,3.98 12.3,8.92 16.4,15.3 2.23,4.1 3.78,8.57 4.7,13.15 0.54,3.88 0.145,7.835 -0.825,11.625 -1.9,4.22 -3.765,8.555 -6.625,12.225 -1.35,2.02 -4.05,1.63 -6.15,1.85 -26.3,-0.17 -52.6,-0.1 -78.9,-0.05 -1.52,-0.06 -3.09,-0.045 -4.55,-0.475 -4.95,-4.67 -7.1,-11.35 -8.95,-17.7 -5.83,11.21 -8.03,23.815 -10.75,36.025 -0.26,0.98 -0.63,1.91 -1.1,2.8 -6.78,12.62 -13.295,25.38 -19.775,38.15 2.64,0.03 5.275,0.055 7.925,0.125 -5.68,9.09 -9.03,20.175 -6.55,30.875 -3.45,0.13 -6.900003,0.26 -10.350003,0.35 -0.81,6.5 -1.485,13.01 -1.775,19.55 -2.25,-1.6 -4.67,-3.325 -5.55,-6.075 -2.3,-6.26 -2.59,-13.035 -3.05,-19.625 0.14,-8.88 2.805,-17.53 5.875,-25.8 4.74,-10.11 9.865,-20.03 14.975003,-29.95 -8.960003,11.5 -16.725003,24.125 -21.325003,38.025 -2.78,6.91 -3.695,14.4 -3.875,21.8 -0.15,5.28 -0.06496,10.615 1.175,15.775 1.53,6.21 5.495,11.51 9.925,16 2.54,2.4 5.08,4.79 7.8,7 14.010003,11.05 28.270003,21.79 42.200003,32.95 4.58,4.24 9.145,9.055 10.875,15.225 1.04,3.39 -0.085,6.905 -1.325,10.075 -3.33,6 -10.75,6.82 -16.8,8.1 2.74,4.53 5.88,8.785 8.9,13.125 3.43,3.72 6.185,8.495 11.175,10.325 10.91,4.57 23.08,4.405 34.7,4.225 0.91,-12.94 -5.655,-24.455 -10.325,-36.025 -2.5,-6 -4.085,-12.315 -5.575,-18.625 -0.53,-2.69 -0.905,-5.405 -1.175,-8.125 -0.04,-0.48 -0.125,-1.42 -0.175,-1.9 -1.15,-12.24 -1.345,-24.68 0.025,-36.9 0.94,-4.24 0.375,-8.85 2.575,-12.75 4.06,-10.04 14.83,-14.97 24.6,-17.8 9.36,-3.17 19.44,-2.835 29.15,-2.125 12.13,1.99 25.705,5.505 33.125,16.175 1.56,2.83 3.24,5.765 3.4,9.075 0.38,5.02 1.58,9.98 1.4,15.05 0.21,2.7 0.28,5.43 0.05,8.15 l 0.7,0.875 c 0.44,7.7 0.45,15.46 -1.05,23.05 l -0.05,0.4 c -1.61,10.57 -3.88,21.275 -8.9,30.825 5.17,-4.14 9.57,-9.165 14.15,-13.925 -0.41,-12.29 -1.63,-24.56 -1.1,-36.85 0.95,-5.2 1.575,-11.245 5.825,-14.925 4.97,-2.98 11.21,-1.17 16.1,1.1 1.77,-18.85 1.695,-37.865 0.175,-56.725 -0.71,-7.17 -2.2,-14.24 -4.2,-21.15 -3.51,-10.78 -7.59,-21.71 -14.65,-30.7 -2.24,-3.06 -5.63,-5.02 -7.95,-7.95 -0.93,-7.93 -3.14,-15.625 -5.35,-23.275 -2.36,-8.57 -5.435,-16.955 -9.475,-24.875 -3.93,-8.15 -8.22,-16.19 -13.5,-23.55 z m -87.85,2.95 c -0.86,3.88 -0.92,7.85 -0.8,11.8 2.68,-2.15 5.47,-4.185 8.6,-5.675 -2.01,-2.72 -4.92,-4.475 -7.8,-6.125 z m 37.3,86.875 c 6.63944,-0.012 13.28437,0.51875 19.825,1.55 16.21,2.73 32.315,8.645 44.975,19.375 0.87,0.76 1.725,1.51 2.575,2.3 -3.44,0.69 -6.95,0.905 -10.45,0.775 -36.02,-0.07 -72.04,0.055 -108.05,-0.025 -5.19,-0.07 -10.48,0.57 -15.55,-0.85 7.05,-6.31 15.18,-11.39 23.95,-14.95 13.53,-5.53438 28.11823,-8.14855 42.725,-8.175 z"
     id="path8855"
     style="fill:url(#linearGradient12081);fill-opacity:1"
     inkscape:connector-curvature="0" />
  <path
     sodipodi:type="arc"
     style="fill:url(#linearGradient12089);fill-opacity:1;stroke:none"
     id="path12072"
     sodipodi:cx="182.16516"
     sodipodi:cy="217.86086"
     sodipodi:rx="20.038168"
     sodipodi:ry="22.163427"
     d="m 202.20333,217.86086 a 20.038168,22.163427 0 1 1 -40.07634,0 20.038168,22.163427 0 1 1 40.07634,0 z"
     transform="matrix(2.7646954,0,0,1.7589216,-316.62256,-196.32709)" />
  <path
     d="m 176.82852,2.0803777 c 12.99,-3.99 26.74,-1.50999996 39.7,1.35 15.56,3.52 30.93,11.1300003 40.59,24.2200003 3.51,4.87 6.97,9.81 9.95,15.03 3.71,6.63 4.98,14.23 6.12,21.64 1.99,14.79 2.82,29.69 3.83,44.570002 0.23,11.61 0.96,23.5 5.25,34.43 2.64,6.91 7.4,12.66 11.35,18.83 11.88,17.05 24.36,33.67 36.22,50.74 6.3,9.62 11.77,19.74 16.99,29.98 4.14,9.11 8.93,18.07 11.01,27.95 4.96,17.55 3.95,36.17 0.68,53.93 -1.3,5.36 -2.64,10.74 -4.77,15.84 l -0.57,0.02 c 0.81,-2.31 1.5,-4.91 0.27,-7.21 -2.62,-5.53 -8.49,-8.25 -13.9,-10.34 -7.23,-3.29 -15.27,-3.79 -23.06,-4.54 3.29,-10.89 6.78,-22.12 5.86,-33.64 -0.49,-7.42 -1.97,-14.75 -4.07,-21.87 -1.38,-4.3 -2.74,-8.67 -5.02,-12.59 -5.95,-9.05 -13.88,-17.06 -23.81,-21.65 6.39,5.77 12.77,11.7 17.62,18.88 3.21,4.61 4.8,10.08 6.63,15.34 3.17,9.56 4.02,19.74 3.65,29.75 -1.52,9.42 -2.96,19.79 -9.75,27.05 -3.72,2.05 -7.82,3.7 -10.72,6.93 -2.33,2.75 -3.62,6.17 -5.05,9.43 l -1.32,-0.73 c 1.77,-18.85 1.69,-37.86 0.17,-56.72 -0.71,-7.17 -2.19,-14.26 -4.19,-21.17 -3.51,-10.78 -7.6,-21.69 -14.66,-30.68 -2.24,-3.06 -5.62,-5.03 -7.94,-7.96 -0.93,-7.93 -3.14,-15.62 -5.35,-23.27 -2.36,-8.57 -5.44,-16.96 -9.48,-24.88 -3.93,-8.15 -8.89699,-17.03873 -14.17699,-24.39873 2.81,-3.1 4.52826,-6.25127 4.38826,-10.51127 -0.2,-3.3 2.17412,-6.58 0.55412,-9.77 -1.25,-2.5 -8.31524,-2.23889 -6.54524,-4.89889 4.63,-6.2 6.84985,-14.82111 6.81985,-22.311112 -0.21,-9.97 -4.29,-20.5 -12.63,-26.42 4.11,-3.1 8.5,-6.04 11.49,-10.33 1.8,-2.57 3.4,-5.29 4.42,-8.27 0.82,-2.54 1.35,-5.17 1.51,-7.84 -0.06,-2.87 -0.35,-5.74 -1.16,-8.5 -1.02,-2.94 -2.35,-5.78 -4.14,-8.33 -1.54,-2.1 -3.24,-4.08 -5.14,-5.85 -5.15,-4.65 -11.2,-8.28 -17.81,-10.39 -15.17,-5.5300003 -32.25,-5.5300003 -47.42,-0.03 -6.63,2.12 -12.69,5.77 -17.87,10.4 -1.89,1.78 -3.58,3.75 -5.12,5.83 -1.71,2.45 -3,5.16 -4.04,7.96 -0.88,2.87 -1.22,5.86 -1.28,8.86 0.14,2.71 0.72,5.39 1.54,7.98 1.03,2.98 2.67,5.71 4.46,8.3 2.52,3.57 6.26,5.99 9.09,9.28 -5.36,0.77 -9.31,5.13 -11.63,9.74 -4.22,9.87 -3.12,20.960002 -0.78,31.160002 1.06,4.05 4.45286,8.56636 7.18286,11.64636 -3.97,4.03 -8.84476,7.46364 -7.82476,13.78364 16.29005,-2.42052 1.57777,8.06539 4.84777,11.35539 -0.86,3.88 -1.01587,8.80461 -0.89587,12.75461 0.08,3.33 0.29,6.66 0.5,9.98 -3.17,4.05 -6.2,8.2 -8.94,12.55 -1.46,2.31 -2.8,4.69 -4.01,7.14 -5.83,11.21 -8.03,23.81 -10.75,36.02 -0.26,0.98 -0.62,1.91 -1.09,2.8 -6.78,12.62 -13.3,25.38 -19.78,38.15 -4.690003,9.88 -7.370003,20.58 -8.970003,31.35 -0.81,6.5 -1.48,13.02 -1.77,19.56 -2.25,-1.6 -4.68,-3.33 -5.56,-6.08 -2.3,-6.26 -2.59,-13.04 -3.05,-19.63 0.14,-8.88 2.8,-17.53 5.87,-25.8 4.74,-10.11 9.88,-20.02 14.990003,-29.94 -8.960003,11.5 -16.730003,24.13 -21.330003,38.03 -2.78,6.91 -3.69,14.39 -3.87,21.79 -0.15,5.28 -0.07,10.62 1.17,15.78 1.53,6.21 5.49,11.5 9.92,15.99 2.54,2.4 5.09,4.79 7.81,7 14.010003,11.05 28.270003,21.81 42.200003,32.97 4.58,4.24 9.14,9.05 10.87,15.22 1.04,3.39 -0.09,6.89 -1.33,10.06 -3.33,6 -10.75,6.84 -16.8,8.12 -12.4,-17.5 -24.2,-35.39 -35.760003,-53.45 -4.34,-7.11 -10.29,-13.17 -17.19,-17.81 -3.07,-2.03 -6.35,-4.23 -10.17,-4.3 -4.71,0.02 -9.56,1.45 -13.1,4.66 -2.68,-3.88 -3.87,-8.6 -3.74,-13.27 -0.08,-30.68 12.12,-60.41 30.11,-84.86 5.95,-7.16 10.78,-15.13 16.17,-22.69 7.080003,-9.63 14.210003,-19.22 21.290003,-28.85 2.48,-3.59 5.13,-7.15 6.72,-11.26 3.59,-8.62 3.76,-18.11 4.49,-27.28 1.02,-22.01 -0.07,-44.040002 -0.2,-66.060002 -0.61,-18.46 1.67,-38.19 12.58,-53.67 7.27,-11.48 19.95,-18.2700003 32.65,-22.0800003 z"
     id="path8709"
     inkscape:connector-curvature="0"
     style="fill:#000000"
     sodipodi:nodetypes="ccccccccccccccccccccccccccccccccccccccccccccccccccccccccccccccccccccccccccccccccccccccccccccccc" />
  <path
     d="m 56.758517,332.10038 c 3.54,-3.21 8.39,-4.64 13.1,-4.66 3.82,0.07 7.1,2.27 10.17,4.3 6.9,4.64 12.85,10.7 17.19,17.81 11.560003,18.06 23.360003,35.95 35.760003,53.45 2.74,4.53 5.88,8.78 8.9,13.12 4.14,9.42 10.83,18.14 11.65,28.71 -0.44,8.72 -5.11,16.49 -10.19,23.33 -4.53,4.17 -10.29,7.15 -16.47,7.8 -10.62,1.4 -21.46,-0.3 -31.550003,-3.74 -8.98,-2.95 -17.04,-8.17 -26.17,-10.73 -20.16,-6.22 -40.68,-11.18 -61.2800002,-15.71 -3.9,-0.66 -7.46999995,-3.76 -7.82999995,-7.83 -0.41,-5.89 2.54999995,-11.29 4.27999995,-16.76 1.69,-5.32 4.68,-10.57 3.99,-16.33 -0.87,-11.71 -1.62,-23.42 -2.8,-35.1 -0.58,-4.2 0.45,-8.82 3.24,-12.06 4.7300002,-3.95 11.3000002,-4.22 17.1800002,-4.3 5.37,-0.18 11.45,2.48 16.12,-1.38 6.39,-5.4 9.93,-13.23 14.71,-19.92 z"
     id="path8935"
     inkscape:connector-curvature="0"
     style="fill:#c3752c" />
  <path
     sodipodi:type="arc"
     style="fill:#eeeeef;fill-opacity:1;stroke:none"
     id="path12101"
     sodipodi:cx="333.96945"
     sodipodi:cy="-147.38029"
     sodipodi:rx="58.29285"
     sodipodi:ry="40.076336"
     d="m 392.2623,-147.38029 a 58.29285,40.076336 0 1 1 -116.5857,0 58.29285,40.076336 0 1 1 116.5857,0 z"
     transform="matrix(1.3823013,0,0,1.2993927,-276.34097,480.13473)" />
  <path
     style="fill:url(#linearGradient11480);fill-opacity:1"
     d="m 192.93492,8.7653777 c -8.36385,-0.0039 -16.74325,1.4130053 -24.61175,4.2390153 -6.8778,2.178597 -13.14356,5.929483 -18.51716,10.687457 -1.96064,1.829199 -3.719,3.848512 -5.31656,5.986003 -1.77391,2.517718 -3.1225,5.318037 -4.20137,8.195429 -0.91289,2.949327 -1.26041,6.011695 -1.32266,9.094615 0.14524,2.784904 0.75729,5.533841 1.60794,8.195429 1.0685,3.062367 2.75942,5.867825 4.61632,8.529412 2.61419,3.668675 6.50435,6.150426 9.44013,9.531362 2.15774,0.328845 4.29473,0.719348 6.43173,1.181786 3.02914,1.068745 5.60183,3.159993 7.10602,5.986003 10.16629,0.184975 20.40001,-0.36995 30.5248,0.616584 1.7013,-2.610206 3.91091,-4.840185 6.37986,-6.731042 6.86743,-4.891567 16.65508,-4.413714 23.67811,-0.07707 4.26362,-3.185684 8.82808,-6.227499 11.92983,-10.636075 1.86728,-2.641035 3.53227,-5.415663 4.59039,-8.47803 0.85065,-2.610206 1.39008,-5.323175 1.55607,-8.066974 -0.0622,-2.949327 -0.35271,-5.898654 -1.19299,-8.734941 -1.05812,-3.021261 -2.44821,-5.934621 -4.30511,-8.555103 -1.59756,-2.158044 -3.34554,-4.192771 -5.31655,-6.011694 -5.34249,-4.778526 -11.63418,-8.519136 -18.49123,-10.687457 -7.8685,-2.841424 -16.22196,-4.2608523 -24.58582,-4.2647063 z"
     id="path8711"
     inkscape:connector-curvature="0" />
  <path
     d="m 204.62852,72.520378 c 6.62,-4.76 16.07,-4.31 22.84,-0.09 8.34,5.92 12.42,16.45 12.63,26.42 0.03,7.490002 -0.73,15.510002 -5.36,21.710002 -4.36,-1.07 -8.76,-1.96 -13.04,-3.34 6.99,-4.67 6.48,-14.03 6.23,-21.430002 0.16,-7.06 -7.72,-13.1 -14.4,-10.46 -3.64,1.17 -5.56,4.94 -6.18,8.48 -0.9,5.98 -0.77,12.160002 0.88,18.010002 -3.59,-1.59 -7.21,-3.12 -10.96,-4.31 -3.88,-9.000002 -2.84,-19.700002 1.21,-28.440002 1.64,-2.54 3.77,-4.71 6.15,-6.55 z"
     id="path8745"
     inkscape:connector-curvature="0"
     style="fill:#ffffff" />
  <path
     d="m 144.36852,81.240378 c 2.32,-4.61 6.27,-8.97 11.63,-9.74 2.08,0.32 4.15,0.69 6.21,1.14 2.92,1.04 5.41,3.07 6.86,5.82 4.52,8.49 6.62,18.84 3.36,28.120002 -1.47,0.57 -2.89,1.26 -4.3,1.96 -0.24,-6.34 -2.2,-12.760002 -6.13,-17.800002 -4.06,-5.35 -14.12,-2.74 -14.7,4.08 -0.59,8.230002 2.81,16.770002 9.14,22.140002 -2.13,2.01 -4.3,3.97 -6.44,5.97 -2.73,-3.08 -5.35,-6.48 -6.41,-10.53 -2.34,-10.2 -3.44,-21.290002 0.78,-31.160002 z"
     id="path8749"
     inkscape:connector-curvature="0"
     style="fill:#ffffff" />
  <path
     d="m 169.06852,78.460378 c 9.8,0.196555 19.65,-0.38219 29.41,0.666102 -4.05,9.543826 -5.09,21.22792 -1.21,31.05566 -7.92,-3.05752 -16.8,-4.30237 -24.84,-1.01554 3.26,-10.133492 1.16,-21.435389 -3.36,-30.706222 z"
     id="path8757"
     inkscape:connector-curvature="0"
     style="fill:#000000" />
  <path
     d="m 213.52852,85.330378 c 6.68,-2.64 14.56,3.4 14.4,10.46 0.25,7.400002 0.76,16.760002 -6.23,21.430002 -4.61,-1.49 -9.03,-3.49 -13.47,-5.4 -1.65,-5.85 -1.78,-12.030002 -0.88,-18.010002 0.62,-3.54 2.54,-7.31 6.18,-8.48 z"
     id="path8759"
     inkscape:connector-curvature="0"
     style="fill:#000000" />
  <path
     d="m 215.00852,86.615378 c -2.19817,0.09283 -3.76125,2.082504 -5.1,3.675 -0.93,1.92 -1.2,4.05 -1.35,6.15 0.28,1.32 0.555,2.63 0.825,3.950002 l 0.425,0 c 0.57,5.45 10.645,5.435 11.175,0.025 l 0.5,0.025 c 0.28,-1.340002 0.575,-2.695002 0.875,-4.025002 -0.22,-2.11 -0.435,-4.245 -1.375,-6.175 -1.44,-1.41 -2.7,-3.59 -5,-3.55 -0.34125,-0.07128 -0.66098,-0.08826 -0.975,-0.07496 z"
     id="path8761"
     style="fill:url(#linearGradient12042);fill-opacity:1"
     inkscape:connector-curvature="0" />
  <path
     d="m 147.29852,94.820378 c 0.58,-6.82 10.64,-9.43 14.7,-4.08 3.93,5.04 5.89,11.460002 6.13,17.800002 -4.28,2.22 -8.12,5.21 -11.69,8.42 -6.33,-5.37 -9.73,-13.91 -9.14,-22.140002 z"
     id="path8765"
     inkscape:connector-curvature="0"
     style="fill:#000000" />
  <path
     d="m 154.03352,89.565378 c -1.61508,0.118344 -3.12376,0.967496 -4.025,2.7 l -0.275,-0.125 c -0.78,1.96 -1.075,4.05 -1.175,6.15 0.34,1.41 0.765,2.805002 1.225,4.175002 1.15,3.93 5.665,3.255 8.825,2.975 1.41,-0.1 2.44,-1.76 2.35,-3.1 l 0.375,0 c 0.4,-2.15 0.875,-4.395002 0.125,-6.525002 -0.61,-1.19 -1.19,-2.37 -1.8,-3.55 -1.31063,-1.816872 -3.54848,-2.85216 -5.625,-2.7 z"
     id="path8767"
     style="fill:url(#linearGradient12051);fill-opacity:1"
     inkscape:connector-curvature="0" />
  <path
     d="m 172.42852,106.58038 c 8.04,-3.01 16.92,-1.87 24.84,0.93 3.75,1.19 7.37,2.72 10.96,4.31 4.44,1.91 8.86,3.91 13.47,5.4 4.28,1.38 8.68,2.27 13.04,3.34 2.43,1.26 4.78,3 6.03,5.5 1.62,3.19 -0.84,6.47 -0.64,9.77 0.14,4.26 -1.75,8.27 -4.56,11.37 -4.78,3.92 -11.16,4.98 -16.21,8.5 -7.21,5 -13.37,12.28 -22.29,14.22 -6.45,1.58 -13.23,3.55 -19.84,1.78 -8.72,-2.51 -16.43,-8.08 -21.72,-15.43 -2.01,-2.72 -4.92,-4.49 -7.8,-6.14 -3.27,-3.29 -5.05,-7.84 -6.05,-12.3 -1.02,-6.32 4.37,-10.87 8.34,-14.9 2.14,-2 4.31,-3.96 6.44,-5.97 3.57,-3.21 7.41,-6.2 11.69,-8.42 1.41,-0.7 2.83,-1.39 4.3,-1.96 z"
     id="path8799"
     inkscape:connector-curvature="0"
     style="fill:#c3752c" />
  <path
     style="fill:url(#linearGradient12033);fill-opacity:1"
     d="m 182.33352,108.09038 c -2.63942,0.0382 -5.265,0.43 -7.8,1.3 -8.61,2.79 -15.18,9.305 -21.65,15.325 -2.71,2.7 -5.605,5.365 -7.425,8.775 -1.23,2.38 -0.265,5.035 0.375,7.425 2.6,0.14 5.155,0.685 7.575,1.625 3.87,3.52 7.92,7.555 13.55,7.575 13.11,0.68 27.225,-0.475 38.525,-7.825 7.11,-4.57 13.855,-10.165 22.175,-12.375 0.46,0.86 0.93,1.73 1.4,2.6 -4.31,1.78 -8.71,3.565 -12.4,6.475 -4.65,2.43 -8.595,6.065 -13.375,8.325 -7.41,4.14 -15.955,5.295 -24.275,6.075 -6.33,0.28 -12.965,0.835 -18.975,-1.575 -4.61,-1.69 -7.085,-7.18 -12.375,-7.3 2.01,4.21 7.255,5.045 9.725,8.875 5.05,7.13 12.295,12.825 20.775,15.175 6.77,1.62 13.57,-0.74 20.1,-2.35 9.06,-3.09 14.855,-11.495 23.375,-15.575 5.33,-2.84 12.615,-3.985 14.625,-10.625 0.64,-4.05 1.06,-8.175 1.7,-12.175 -2.6,-5.41 -9.42,-4.89 -14.3,-6.6 -7.76,-1.79 -14.675,-6.185 -22.275,-8.225 -1.61,-1.64 -3.99,-1.925 -6.05,-2.675 -4.15,-1.38751 -8.60098,-2.31367 -13,-2.25 z"
     id="path8807"
     inkscape:connector-curvature="0" />
  <path
     d="m 183.53352,110.79038 c -3.75872,0.0851 -7.4925,0.80313 -10.975,2.225 l -0.425,0.2 c -0.22,2.63 -2.83,3.74 -5.15,3.15 -2.38,1.84 -4.58,3.91 -6.65,6.1 -0.64,0.68 -1.265,1.365 -1.875,2.075 -1.11,1.69 -1.985,3.555 -2.275,5.575 2.36,3.3 6.375,4.56 10.025,5.85 5.23,0.5 10.46,0.165 15.7,0.275 3.86,0 7.865,0.275 11.575,-1.025 3.16,-1.11 5.81,-3.21 8.45,-5.2 2.72,-2.06 5.62,-4.015 7.5,-6.925 -0.08,-0.55 -0.245,-1.65 -0.325,-2.2 -2.82,-3.4 -7.01,-5.305 -10.9,-7.225 l -0.525,-0.225 c -4.43813,-1.82813 -9.31736,-2.75947 -14.15,-2.65 z m 9.575,2.625 c 1.2875,-0.004 2.59,0.025 3.875,0.1 0.53,4.4 -4.635,3.175 -6.725,1.325 l -1,-1.35 c 1.285,-0.04 2.56249,-0.0713 3.85,-0.075 z"
     id="path8815"
     style="fill:url(#linearGradient11516);fill-opacity:1"
     inkscape:connector-curvature="0" />
  <path
     d="m 166.98852,116.36038 c 1.5,-1.37 3.24,-2.43 5.14,-3.15 -0.22,2.63 -2.82,3.74 -5.14,3.15 z"
     id="path8823"
     inkscape:connector-curvature="0"
     style="fill:#d18c41" />
  <path
     d="m 189.25852,113.50038 c 2.57,-0.08 5.15,-0.13 7.72,0.02 0.53,4.4 -4.64,3.16 -6.73,1.31 l -0.99,-1.33 z"
     id="path8825"
     inkscape:connector-curvature="0"
     style="fill:#ca823c" />
  <path
     d="m 289.44852,228.77038 c 9.93,4.59 17.86,12.6 23.81,21.65 2.28,3.92 3.64,8.29 5.02,12.59 -1.53,-0.01 -3.06,-0.01 -4.58,-0.02 -1.83,-5.26 -3.42,-10.73 -6.63,-15.34 -4.85,-7.18 -11.23,-13.11 -17.62,-18.88 z"
     id="path8881"
     inkscape:connector-curvature="0"
     style="fill:#dadcdd" />
  <path
     d="m 313.69852,262.99038 c 1.52,0.01 3.05,0.01 4.58,0.02 2.1,7.12 3.58,14.45 4.07,21.87 0.92,11.52 -2.57,22.75 -5.86,33.64 7.79,0.75 15.83,1.25 23.06,4.54 5.41,2.09 11.28,4.81 13.9,10.34 1.23,2.3 0.54,4.9 -0.27,7.21 -0.6,0.01 -1.79,0.04 -2.39,0.06 -0.21,-3.01 -0.49,-6.68 -3.27,-8.51 -9.14,-6.42 -20.38,-9.86 -31.55,-9.62 -9.73,-0.84 -17.85,6.74 -20.99,15.39 -1.06,-0.6 -2.1,-1.2 -3.15,-1.78 1.43,-3.26 2.72,-6.68 5.05,-9.43 2.9,-3.23 7,-4.88 10.72,-6.93 6.79,-7.26 8.23,-17.63 9.75,-27.05 0.37,-10.01 -0.48,-20.19 -3.65,-29.75 z"
     id="path8897"
     inkscape:connector-curvature="0"
     style="fill:#e7e8e9" />
  <path
     d="m 93.858517,299.93038 c 1.6,-10.77 4.28,-21.47 8.970003,-31.35 2.64,0.03 5.29,0.07 7.94,0.14 -5.68,9.09 -9.05,20.17 -6.57,30.87 -3.45,0.13 -6.890003,0.25 -10.340003,0.34 z"
     id="path8905"
     inkscape:connector-curvature="0"
     style="fill:#e1e2e3" />
  <path
     d="m 197.58804,298.55038 c 9.47814,-3.17 19.6651,-2.85 29.49765,-2.14 12.2831,1.99 26.0345,5.5 33.54815,16.17 1.57969,2.83 3.2809,5.78 3.44291,9.09 0.38479,5.02 1.59994,9.97 1.41768,15.04 l -1.05314,-0.85 c -0.0506,-0.35 -0.16201,-1.06 -0.21265,-1.42 -0.13164,-1.52 -0.28353,-3.04 -0.44555,-4.56 -2.7442,2.13 -4.5973,5.11 -6.8757,7.68 -3.9391,3.16 -8.28324,5.83 -13.03243,7.64 -0.82022,-0.8 -1.64045,-1.59 -2.46067,-2.37 6.35925,-2.13 12.02994,-6.14 16.32345,-11.22 2.59231,-3.59 6.08585,-8.22 3.7062,-12.76 -3.35178,-5.29 -7.20986,-10.69 -13.12358,-13.39 -0.38478,-0.19 -1.14426,-0.56 -1.51892,-0.74 -2.11638,-1.04 -4.26315,-2.02 -6.54155,-2.63 -7.62503,-1.85 -15.33108,-3.97 -23.2599,-3.65 -7.4934,-0.12 -14.602,2.49 -21.78148,4.2 -8.09085,2.77 -16.82977,6.85 -20.3942,15.1 -2.30877,3.9 -3.19987,9.03 -0.13163,12.8 2.69356,2.5 5.30613,5.1 8.17185,7.41 -1.25565,0.28 -2.5113,0.57 -3.75683,0.86 -0.79996,-0.68 -1.55942,-1.37 -2.29865,-2.08 -1.42779,-1.53 -2.66319,-3.21 -3.76695,-4.98 -0.41517,-0.13 -1.25565,-0.4 -1.68095,-0.53 -0.32404,-0.53 -0.97211,-1.61 -1.30627,-2.14 0.95186,-4.24 0.39491,-8.84 2.62268,-12.74 4.11124,-10.04 15.01718,-14.96 24.91048,-17.79 z"
     id="path8917"
     inkscape:connector-curvature="0"
     style="fill:#0c0909" />
  <path
     d="m 195.21851,302.64038 c 7.17948,-1.71 14.28808,-4.32 21.78148,-4.2 7.92882,-0.32 15.63487,1.8 23.2599,3.65 2.2784,0.61 4.42517,1.59 6.54155,2.63 -6.1365,-0.7 -12.29323,-1.66 -18.13605,-3.68 -5.6403,-2.05 -11.76666,-1.3 -17.61961,-0.81 -3.05812,0.25 -4.30364,3.76 -7.08835,4.68 -6.44027,2.26 -13.28559,3.66 -19.24994,7.04 -3.31126,2.3 -6.44026,5.13 -8.425,8.63 -0.41518,2.63 -0.1924,5.31 -0.26328,7.97 -0.77972,-1.38 -2.086,-2.56 -2.37967,-4.16 0.071,-2.26 0.7696,-4.44 1.18477,-6.65 3.56443,-8.25 12.30335,-12.33 20.3942,-15.1 z"
     id="path8919"
     inkscape:connector-curvature="0"
     style="fill:#bfbebf" />
  <path
     d="m 203.95743,304.91038 c 2.78471,-0.92 4.03023,-4.43 7.08835,-4.68 5.85295,-0.49 11.97931,-1.24 17.61961,0.81 5.84282,2.02 11.99955,2.98 18.13605,3.68 0.37466,0.18 1.13414,0.55 1.51892,0.74 3.2809,4.53 8.61742,7.87 9.80218,13.69 0.6582,4.42 -0.77971,10.34 -5.80231,11.54 -3.46317,1.68 -6.97697,-0.56 -10.29837,-1.5 -11.12871,-3.92 -23.14852,-4.15 -34.79367,-3.01 -9.67053,0.07 -18.26768,4.95 -27.42178,7.35 -1.61007,-1.37 -2.72395,-3.18 -3.7872,-4.98 0.0709,-2.66 -0.1519,-5.34 0.26328,-7.97 1.98474,-3.5 5.11374,-6.33 8.425,-8.63 5.96435,-3.38 12.80967,-4.78 19.24994,-7.04 z"
     id="path8923"
     inkscape:connector-curvature="0"
     style="fill:#dddddd" />
  <path
     d="m 248.32036,305.46038 c 5.91372,2.7 9.7718,8.1 13.12358,13.39 2.37965,4.54 -1.11389,9.17 -3.7062,12.76 -3.23025,0.73 -6.6428,0.79 -9.73129,1.97 -4.51629,3.12 -8.30349,7.4 -13.41722,9.62 -5.38715,1.42 -11.09834,1.08 -16.59687,0.62 -2.84547,-0.17 -5.30613,-1.67 -7.51365,-3.32 2.82522,-1.99 6.39977,-1.81 9.68067,-2.25 -5.87322,-1.91 -12.07045,-0.54 -18.10569,-0.9 -3.37201,-0.31 -6.27825,1.63 -9.38699,2.52 -3.17962,-0.93 -5.74156,-3.43 -9.07309,-4.16 -1.3164,-0.63 -2.57205,-1.37 -3.7872,-2.18 9.1541,-2.4 17.75125,-7.28 27.42178,-7.35 11.64515,-1.14 23.66496,-0.91 34.79367,3.01 3.3214,0.94 6.8352,3.18 10.29837,1.5 5.0226,-1.2 6.46051,-7.12 5.80231,-11.54 -1.18476,-5.82 -6.52128,-9.16 -9.80218,-13.69 z"
     id="path8925"
     inkscape:connector-curvature="0"
     style="fill:#cbc4c3" />
  <path
     d="m 219.33914,311.14038 c 6.55167,-1.76 13.56914,0.68 19.95877,-1.88 6.11623,1.16 11.87805,4.16 16.27283,8.53 1.03287,1.99 -0.21265,4.28 -1.07338,6.12 -1.8126,2.48 -5.32638,2.04 -8.01997,1.79 -3.15938,-0.43 -6.2985,0.46 -9.44775,0.45 -1.96449,-0.42 -3.77708,-1.47 -5.82258,-1.51 -7.77692,-0.14 -15.54372,0.04 -23.32067,0.08 -5.17448,-0.14 -10.11608,1.57 -15.20956,2.19 -4.00999,1.03 -8.45539,3.73 -12.43499,1.06 6.12635,-6.62 15.16907,-9.86 23.7966,-11.94 5.51879,-0.32 9.90344,-4.08 15.3007,-4.89 z"
     id="path8927"
     inkscape:connector-curvature="0"
     style="fill:#e8e9e9" />
  <path
     d="m 174.69268,330.54038 c -3.06824,-3.77 -2.17714,-8.9 0.13163,-12.8 -0.41517,2.21 -1.11387,4.39 -1.18477,6.65 0.29367,1.6 1.59995,2.78 2.37967,4.16 1.06325,1.8 2.17713,3.61 3.7872,4.98 1.21515,0.81 2.4708,1.55 3.7872,2.18 0.60758,1.21 1.22528,2.41 1.8531,3.62 -0.87085,-0.45 -1.73157,-0.91 -2.58218,-1.38 -2.86572,-2.31 -5.47829,-4.91 -8.17185,-7.41 z"
     id="path8929"
     inkscape:connector-curvature="0"
     style="fill:#878484" />
  <path
     d="m 294.97852,337.93038 c 3.14,-8.65 11.26,-16.23 20.99,-15.39 11.17,-0.24 22.41,3.2 31.55,9.62 2.78,1.83 3.06,5.5 3.27,8.51 -0.39,1.02 -0.79,2.04 -1.2,3.06 -1.86,5.33 -5.26,9.98 -9.51,13.65 -3.6,2.86 -7.49,5.76 -12.14,6.52 -6.83,1.45 -13.89,0.2 -20.43,-1.95 -5.06,-2.08 -10.88,-3.99 -14.01,-8.8 -0.43,-2.34 -0.56,-4.71 -0.43,-7.07 0.21,-1.7 0.47,-3.38 0.86,-5.04 0.31,-1.05 0.66,-2.09 1.05,-3.11 z"
     id="path8931"
     inkscape:connector-curvature="0"
     style="fill:#000000" />
  <path
     d="m 313.90852,326.71538 c -2.5,-0.06 -4.795,1.165 -6.925,2.325 -1.63,1.65 -3.065,3.465 -4.375,5.375 -0.31,0.73 -0.94,2.18 -1.25,2.9 l -0.425,-0.075 c 0.17,1.64 0.425,3.285 0.725,4.925 0.86,1.95 2.18,3.625 3.5,5.275 l 0.625,-0.025 c 0.77,2.95 4.3,4.235 7.1,3.925 5.7,-0.25 11.595,0.74 17.075,-1.3 1.48,-0.68 3.79,-0.695 4.25,-2.625 3.31,-0.08 5.775,-2.91 7.875,-5.2 0.43,-1.4 0.845,-2.815 1.225,-4.225 -0.49,-1.32 -0.965,-2.63 -1.425,-3.95 l -0.425,0.05 c -3.74,-2.81 -8.31,-3.855 -12.7,-5.175 -4.94,-0.78 -9.88,-1.65 -14.85,-2.2 z"
     id="path8933"
     style="fill:url(#linearGradient12199);fill-opacity:1"
     inkscape:connector-curvature="0" />
  <path
     style="fill:url(#linearGradient3992);fill-opacity:1"
     d="m 68.908517,330.74038 c -4.92148,-0.0663 -9.9875,2.57187 -12.05,7.075 -2.88,4.95 -6.11,9.725 -9.85,14.075 -2.98,3.45 -7.47,6.03 -12.15,5.55 -7.26,-0.77 -15.04,-1.685 -21.9,1.425 -3.1800002,1.16 -3.9900002,4.97 -4.3000002,7.95 0.32,6.08 1.1,12.12 1.5000002,18.2 0.45,6.93 1.01,13.87 1.5,20.8 0.52,5.75 -2.6500002,10.835 -3.9000002,16.275 l -0.4,0.1 c -1.47,4.82 -3.865,9.49 -4.125,14.6 -0.09,2.84 2.225,5.17 4.925,5.65 12.0700002,2.69 24.1250002,5.54 36.1250002,8.5 7.13,2.24 14.415,3.885 21.575,6.025 l 0.3,-0.2 c 5.81,2.54 12.045,4.045 17.725,6.975 13.42,6.87 28.855003,11.095 43.975003,8.725 7.62,-1.1 13.955,-6.52 17.475,-13.2 3.09,-5.64 6.205,-12.315 4.125,-18.825 -2.22,-7.49 -6.09,-14.36 -9.95,-21.1 -3.85,-6.21 -7.64,-12.48 -12,-18.35 -5.07,-7.41 -10.125,-14.84 -15.275,-22.2 -5.34,-8.22 -10.57,-16.5 -16.000003,-24.65 -5.1,-8.77 -12.16,-16.48 -21,-21.55 -1.868752,-1.22813 -4.08796,-1.81987 -6.325,-1.85 z"
     id="path8941"
     inkscape:connector-curvature="0" />
  <path
     d="m 71.958517,340.66538 c -4.384568,-0.10404 -8.311248,2.92875 -11.4,5.825 -2.95,3.75 -5.17,8.04 -8.2,11.75 -1.77,1.91 -3.685,3.765 -6.025,4.975 -6.04,3.3 -13.51,-0.15 -19.45,3.5 -2.66,1.45 -3.835,4.41 -4.325,7.25 -0.02,1.55 0.02,3.105 0.1,4.675 0.37,2.27 0.945,4.535 1.825,6.675 2.45,3.68 5.645,6.755 8.975,9.625 3.24,2.85 6.76,5.37 10.25,7.9 0.79,0.58 1.585,1.145 2.375,1.725 4.4,3.09 9.06,5.815 13.55,8.775 5.53,3.54 11.295,6.71 16.975,10 4.12,2.43 8.32,4.71 12.55,6.95 1.67,0.86 3.37,1.7 5,2.65 3.2,2.06 6.495003,3.955 9.875003,5.725 3.52,2.05 7.535,3.615 11.675,2.775 6.39,-1.18 12.62,-3.16 19.05,-4.15 -0.76,-4.41 -2.38,-8.605 -4.4,-12.575 -0.32,-0.65 -0.645,-1.28 -0.975,-1.9 -2.11,-3.96 -3.89,-8.075 -6.1,-11.975 -1.18,-2.11 -2.395,-4.185 -3.625,-6.275 -1.09,-1.86 -2.21,-3.72 -3.35,-5.55 -2.27,-3.65 -4.39,-7.39 -6.65,-11.05 -0.78,-1.28 -1.53,-2.57 -2.3,-3.85 -1.01,-1.71 -2.045,-3.425 -3.075,-5.125 -1.89,-3.13 -3.815,-6.225 -5.825003,-9.275 -2.39,-3.66 -4.72,-7.325 -6.95,-11.075 l -0.125,0.1 c -1.52,-2.32 -3.06,-4.62 -4.7,-6.85 -3.24,-4.65 -7.005,-9.585 -12.825,-10.975 -0.643752,-0.15251 -1.273632,-0.23514 -1.9,-0.25 z"
     id="path8963"
     style="fill:url(#linearGradient12163);fill-opacity:1"
     inkscape:connector-curvature="0" />
  <path
     d="m 170.05488,329.08038 c 0.33416,0.53 0.98223,1.61 1.30627,2.14 l 0,0.58 c -0.30379,0.21 -0.90122,0.64 -1.20501,0.85 1.09362,8.76 -1.99486,18.14 1.98474,26.45 1.51892,2.81 3.07836,6.15 6.37951,7.23 10.76415,5.4 22.3688,9.86 34.581,10.19 9.20474,1.49 18.76389,0.5 27.6547,-2.16 7.41239,-3.23 15.52349,-6.56 20.27267,-13.42 3.2809,-4.74 3.48342,-10.63 4.52642,-16.08 l 0.69871,0.88 c 0.44555,7.7 0.4658,15.47 -1.05313,23.06 0.091,-0.86 0.26328,-2.57 0.35442,-3.43 -11.47299,8.32 -25.24464,13.3 -39.3302,14.88 -10.61229,0.12 -21.5182,0.52 -31.6748,-3.04 -5.26564,-1.66 -10.16672,-4.22 -15.38172,-6.01 -3.79732,-1.17 -5.90357,-4.76 -8.67817,-7.29 -0.11138,0.52 -0.34428,1.55 -0.4658,2.07 -1.16451,-12.24 -1.35691,-24.68 0.0305,-36.9 z"
     id="path8939"
     inkscape:connector-curvature="0"
     style="fill:#736c6c" />
  <path
     d="m 171.81852,331.22038 c 0.42,0.13 1.25,0.4 1.66,0.53 1.09,1.77 2.31,3.45 3.72,4.98 -1.59,1.43 -3.16,2.88 -4.74,4.33 -1.08,-2.98 -0.46,-6.18 -0.64,-9.26 l 0,-0.58 z"
     id="path8943"
     inkscape:connector-curvature="0"
     style="fill:#e5e5e5" />
  <path
     d="m 256.90739,337.56038 c 2.2784,-2.57 4.1315,-5.55 6.8757,-7.68 0.16202,1.52 0.31391,3.04 0.44555,4.56 -0.36455,2.96 -0.72908,5.91 -1.02275,8.88 -2.25814,-1.74 -4.3644,-3.67 -6.2985,-5.76 z"
     id="path8945"
     inkscape:connector-curvature="0"
     style="fill:#e1e1e2" />
  <path
     d="m 170.15614,332.65038 c 0.30379,-0.21 0.90122,-0.64 1.20501,-0.85 0.18228,3.08 -0.44556,6.28 0.64808,9.26 0.3848,1.22 0.77971,2.43 1.16451,3.66 1.05314,-0.45 2.11639,-0.89 3.17964,-1.34 1.13413,2.87 1.84296,5.89 3.01761,8.74 0.8506,1.57 2.83534,0.35 4.23275,0.65 3.45305,0.88 5.27575,4.15 7.67567,6.44 1.82273,1.1 4.10112,1.06 6.14662,1.53 4.3644,0.66 8.24273,2.97 12.53625,3.87 5.23525,1.23 10.6224,0.07 15.74626,-1.06 7.3415,-4.39 15.93865,-5.75 23.8776,-8.74 0.59745,1.26 1.1949,2.53 1.79235,3.81 1.98474,-2.8 4.51629,-5.29 5.50865,-8.66 0.8101,-2.53 3.67582,-5.97 6.5314,-3.9 0.7696,-3.34 1.1544,-6.77 1.02275,-10.2 l 1.05314,0.85 c 0.21265,2.7 0.29366,5.43 0.0606,8.15 -1.043,5.45 -1.24553,11.34 -4.52642,16.08 -4.74919,6.86 -12.86028,10.19 -20.27267,13.42 -8.89081,2.66 -18.44996,3.65 -27.6547,2.16 -12.2122,-0.33 -23.81685,-4.79 -34.581,-10.19 -3.30115,-1.08 -4.8606,-4.42 -6.37951,-7.23 -3.9796,-8.31 -0.89112,-17.69 -1.98474,-26.45 z"
     id="path8947"
     inkscape:connector-curvature="0"
     style="fill:#aba09e" />
  <path
     d="m 248.00645,333.58038 c 3.08849,-1.18 6.50104,-1.24 9.73129,-1.97 -4.29351,5.08 -9.9642,9.09 -16.32345,11.22 -9.387,3.67 -19.63473,4.78 -29.6698,4.31 -6.78456,-1.1 -13.8324,-1.74 -20.08028,-4.75 -2.09612,-0.99 -4.15175,-2.03 -6.2175,-3.06 -0.62782,-1.21 -1.24552,-2.41 -1.8531,-3.62 3.33153,0.73 5.89347,3.23 9.07309,4.16 3.10874,-0.89 6.01498,-2.83 9.38699,-2.52 6.03524,0.36 12.23247,-1.01 18.10569,0.9 -3.2809,0.44 -6.85545,0.26 -9.68067,2.25 2.20752,1.65 4.66818,3.15 7.51365,3.32 5.49853,0.46 11.20972,0.8 16.59687,-0.62 5.11373,-2.22 8.90093,-6.5 13.41722,-9.62 z"
     id="path8949"
     inkscape:connector-curvature="0"
     style="fill:#b9afad" />
  <path
     d="m 274.41852,334.32038 c 4.97,-2.98 11.2,-1.17 16.09,1.1 l 1.32,0.73 c 1.05,0.58 2.09,1.18 3.15,1.78 -0.39,1.02 -0.74,2.06 -1.05,3.11 -5.12,-2.75 -10.97,-6.53 -16.98,-4.38 -3.6,2.43 -4.01,7.32 -4.82,11.24 -1.08,10.21 0.33,20.48 0.49,30.71 0.09,7.04 1.35,14.16 -0.09,21.14 -1.21,6.67 -2.62,13.31 -4.06,19.94 -1.82,9.62 -5.08,19.21 -4.05,29.13 0.63,6.27 1.93,12.73 5.34,18.14 4.15,5.89 11.74,7.51 18.43,8.54 6.46,1.09 13.08,0.04 19.14,-2.35 6.59,-2.44 12.32,-6.75 16.85,-12.07 7.97,-8.11 17.49,-14.46 26.28,-21.62 5.1,-4.33 11.43,-6.69 17.53,-9.23 8.17,-3.95 18.07,-5.88 23.88,-13.43 3.18,-4.21 5.87,-9.52 4.87,-14.94 -3.21,-6.17 -11.01,-6.75 -15.96,-10.93 -6.39,-5.29 -12.03,-11.61 -16.31,-18.73 -4.48,-7.49 -1.89,-16.84 -5.33,-24.63 -1.71,-3.69 -5.99,-4.04 -9.55,-3.84 0.41,-1.02 0.81,-2.04 1.2,-3.06 0.6,-0.02 1.79,-0.05 2.39,-0.06 l 0.57,-0.02 c 3.79,-0.07 6.88,2.72 8.53,5.91 3.56,8.04 0.69,17.79 5.75,25.31 3.57,5.51 7.95,10.5 12.8,14.91 5.57,5.46 14.77,6.08 18.77,13.35 1.72,7.29 -1.43,14.74 -6.31,20.12 -5.21,6.17 -13.27,8.44 -20.41,11.56 -7.01,3.12 -14.66,5.27 -20.54,10.43 -9.56,7.77 -19.96,14.64 -28.27,23.82 -6.36,6.7 -15.08,10.88 -24.08,12.65 -9.5,0.74 -19.69,0.22 -28,-4.96 -6.03,-3.9 -8.41,-11.11 -9.88,-17.77 -1.46,-7.18 -1.61,-14.66 -0.07,-21.84 2.48,-11.79 5.14,-23.54 7.32,-35.38 0.85,-4.15 0.57,-8.41 0.32,-12.6 -0.41,-12.29 -1.63,-24.58 -1.1,-36.87 0.95,-5.2 1.59,-11.23 5.84,-14.91 z"
     id="path8951"
     inkscape:connector-curvature="0"
     style="fill:#c3752c" />
  <path
     d="m 264.22864,334.44038 c 0.0506,0.36 0.16202,1.07 0.21265,1.42 0.13165,3.43 -0.25315,6.86 -1.02275,10.2 -2.85558,-2.07 -5.7213,1.37 -6.5314,3.9 -0.99236,3.37 -3.52391,5.86 -5.50865,8.66 -0.59745,-1.28 -1.1949,-2.55 -1.79235,-3.81 -7.93895,2.99 -16.5361,4.35 -23.8776,8.74 -5.12386,1.13 -10.51101,2.29 -15.74626,1.06 -4.29352,-0.9 -8.17185,-3.21 -12.53625,-3.87 -2.0455,-0.47 -4.32389,-0.43 -6.14662,-1.53 -2.39992,-2.29 -4.22262,-5.56 -7.67567,-6.44 -1.39741,-0.3 -3.38215,0.92 -4.23275,-0.65 -1.17465,-2.85 -1.88348,-5.87 -3.01761,-8.74 -1.06325,0.45 -2.1265,0.89 -3.17964,1.34 -0.3848,-1.23 -0.77971,-2.44 -1.16451,-3.66 1.59995,-1.45 3.18976,-2.9 4.79982,-4.33 0.73923,0.71 1.49869,1.4 2.29865,2.08 3.14926,2.5 6.62254,4.66 10.41988,6.08 11.11858,4.23 23.23966,6.18 35.13796,5.09 6.60229,-0.58 13.1337,-2.18 19.20942,-4.78 4.74919,-1.81 9.09333,-4.48 13.03243,-7.64 1.9341,2.09 4.04036,4.02 6.2985,5.76 0.29367,-2.97 0.6582,-5.92 1.02275,-8.88 z"
     id="path8955"
     inkscape:connector-curvature="0"
     style="fill:#bbb1af" />
  <path
     d="m 182.86453,337.95038 c 0.85061,0.47 1.71133,0.93 2.58218,1.38 2.06575,1.03 4.12138,2.07 6.2175,3.06 -0.71897,0.83 -1.4278,1.66 -2.13663,2.5 -3.79734,-1.42 -7.27062,-3.58 -10.41988,-6.08 1.24553,-0.29 2.50118,-0.58 3.75683,-0.86 z"
     id="path8961"
     inkscape:connector-curvature="0"
     style="fill:#474646" />
  <path
     d="m 189.52758,344.89038 c 0.70883,-0.84 1.41766,-1.67 2.13663,-2.5 6.24788,3.01 13.29572,3.65 20.08028,4.75 4.34415,0.78 8.87055,0.93 12.92105,2.84 -11.8983,1.09 -24.01938,-0.86 -35.13796,-5.09 z"
     id="path8967"
     inkscape:connector-curvature="0"
     style="fill:#171616" />
  <path
     d="m 211.74449,347.14038 c 10.03507,0.47 20.2828,-0.64 29.6698,-4.31 0.82022,0.78 1.64045,1.57 2.46067,2.37 -6.07572,2.6 -12.60713,4.2 -19.20942,4.78 -4.0505,-1.91 -8.5769,-2.06 -12.92105,-2.84 z"
     id="path8969"
     inkscape:connector-curvature="0"
     style="fill:#424242" />
  <path
     d="m 283.60852,342.46538 c -1.12719,0.0577 -2.24,0.315 -3.35,0.875 -3.14,2.41 -3.55,6.785 -4.1,10.425 -0.17,3 -0.01,6 0.25,9 0.14,1.75 0.29,3.515 0.45,5.275 0.29,2.69 0.68,5.36 1,8.05 0.03,0.39 0.12,1.185 0.15,1.575 0.19,2.04 0.37,4.085 0.5,6.125 0.12,2.35 0.18,4.7 0.15,7.05 -0.07,2.03 -0.225,4.055 -0.475,6.075 -0.4,2.67 -0.945,5.325 -1.475,7.975 -0.41,2.01 -0.825,4.005 -1.225,6.025 -0.59,2.99 -1.165,5.985 -1.775,8.975 -0.48,2.38 -0.94,4.775 -1.35,7.175 -0.27,1.51 -0.505,3.03 -0.775,4.55 -0.37,1.99 -0.795,3.965 -1.125,5.975 -1.33,7.56 -0.99,16.97 4.9,22.6 6.32,0.82 12.7,1.085 19.05,1.675 3.06,-0.42 7.15,0.54 9.25,-2.35 2.84,-3.91 3.895,-8.745 4.625,-13.425 0.08,-0.67 0.26,-2.005 0.35,-2.675 -0.34,-3.9 -1.375,-7.685 -2.275,-11.475 -0.82,-3.56 -1.29,-7.2 -1.15,-10.85 0.35,-3.11 1.025,-6.17 1.775,-9.2 0.39,-1.57 0.82,-3.135 1.3,-4.675 0.99,-2.83 2.3,-5.565 3.85,-8.125 1.66,-2.54 3.605,-4.85 5.625,-7.1 2.08,-2.32 4.19,-4.61 6.35,-6.85 0.37,-0.38 1.13,-1.16 1.5,-1.55 1.81,-1.85 3.57,-3.73 5.45,-5.5 2.47,-2.24 5.085,-4.355 7.225,-6.925 3.35,-3.67 5.76,-9.635 1.8,-13.775 -3.6,2.86 -7.5,5.74 -12.15,6.5 -6.83,1.45 -13.885,0.2 -20.425,-1.95 -5.06,-2.08 -10.87,-3.99 -14,-8.8 -0.43,-2.34 -0.58,-4.69 -0.45,-7.05 -2.715,-2.00251 -6.06844,-3.79797 -9.45,-3.625 z"
     id="path8971"
     style="fill:url(#linearGradient12181);fill-opacity:1"
     inkscape:connector-curvature="0" />
  <path
     d="m 117.25852,356.74038 c 0.88,2.75 1.96,5.46 2.9,8.2 l 0.15,0.05 c 0.57,1.99 1.29,3.94 2.1,5.85 0.82,2.81 2.135,5.44 3.325,8.1 1.71,4.98 4.725,9.87 9.575,12.3 3.08,1.85 7.38,1.765 10,-0.875 1.72,-2.48 1.195,-5.515 -0.325,-7.925 l -0.225,-0.05 c -2.24,-4.23 -5.18,-8.055 -8.8,-11.175 l -0.25,0.025 c -5.97,-5.04 -11.86,-10.29 -18.45,-14.5 z"
     id="path8989"
     style="fill:url(#linearGradient12190);fill-opacity:1"
     inkscape:connector-curvature="0" />
  <path
     d="m 170.49029,363.91038 c 2.7746,2.53 4.88085,6.12 8.67817,7.29 5.215,1.79 10.11608,4.35 15.38172,6.01 10.1566,3.56 21.06251,3.16 31.6748,3.04 14.08556,-1.58 27.85721,-6.56 39.3302,-14.88 -0.091,0.86 -0.26329,2.57 -0.35442,3.43 l -0.0505,0.38 c -4.08087,0.23 -5.81245,4.59 -9.37688,5.95 -4.1315,1.68 -8.03008,4.29 -12.60713,4.57 -4.32389,0.28 -8.32375,2.01 -12.53625,2.8 -6.10612,0.4 -12.30335,-0.73 -18.35884,0.52 -3.5948,0.89 -6.96683,-1.02 -10.45025,-1.51 -3.70618,-0.43 -7.45288,-0.04 -11.1692,-0.37 -2.56193,-0.26 -4.46566,-2.37 -6.97696,-2.79 -5.43779,0.17 -8.03009,-5.49 -12.16159,-8.05 -0.071,1.9 -0.13163,3.8 -0.10125,5.71 -0.5367,-2.69 -0.93161,-5.41 -1.20503,-8.13 -0.0405,-0.48 -0.13163,-1.42 -0.18227,-1.9 0.12152,-0.52 0.35442,-1.55 0.4658,-2.07 z"
     id="path9001"
     inkscape:connector-curvature="0"
     style="fill:#33302f" />
  <path
     style="fill:#797878"
     d="m 181.07285,448.87615 c 1.63814,6.97176 -2.64605,14.15193 1.8566,20.47621 5.87268,7.99578 16.11414,11.01497 25.49492,12.45149 13.2477,1.74379 27.65878,0.0896 38.87001,-7.64188 5.67459,-3.49657 5.75516,-8.4333 6.07197,-14.51054 0.94223,-5.01673 4.56046,-0.26063 3.09996,1.93085 0.52479,4.3675 -0.27627,9.41362 -3.99015,12.28936 -9.60371,9.67545 -23.95231,11.83456 -37.01972,11.46856 -12.49387,0.0235 -25.83169,-3.51193 -34.52461,-12.96323 -4.54428,-5.76975 -2.82487,-13.70172 -1.00498,-20.17422 0.25519,-1.3527 0.83079,-1.98599 1.146,-3.3266 z"
     id="path9103"
     inkscape:connector-curvature="0"
     sodipodi:nodetypes="ccccccccccc" />
  <path
     style="fill:url(#linearGradient4699);fill-opacity:1;stroke:none"
     d="m 181.65024,447.9646 0.0859,9.78958 1.28809,4.2078 4.72305,6.44051 6.69813,4.46542 19.40741,4.98066 24.64569,-3.52081 9.27433,-5.8394 4.98067,-6.69813 1.97508,-10.13307 -7.55686,-0.51524 z"
     id="path4687"
     inkscape:connector-curvature="0" />
  <path
     style="fill:url(#linearGradient4713);fill-opacity:1;stroke:none"
     d="m 185.85804,452.85939 5.49589,5.66765 6.61227,3.95018 6.61225,1.80334 5.41003,0.85874 7.1275,0 8.58734,-0.77287 4.46543,-1.2881 7.98623,-3.34906 9.7037,-7.81449 -2.91969,-3.95018 -55.81776,-2.74795 -7.72862,2.14684 z"
     id="path4685"
     inkscape:connector-curvature="0" />
  <path
     d="m 181.01852,458.58038 c 1.52,3.9 3.89524,7.34063 6.89524,10.34063 4.92,5.25 11.88825,6.97476 18.74825,8.34476 12.38,1.89 25.36302,2.10175 36.33302,-4.75825 4.05,-2.33 7.22349,-5.33714 10.29349,-8.75714 1.15,5.14 -3.63,8.7 -7.13,11.54 -8.7,5.65 -19.41,7.58 -29.66,7.23 -10.42,0.37 -21.05,-2.54 -29.55,-8.63 -4.8,-3.38 -7.51,-9.54 -5.93,-15.31 z"
     id="path9125"
     inkscape:connector-curvature="0"
     style="fill:#404040"
     sodipodi:nodetypes="ccccccccc" />
  <path
     d="m 269.67852,386.10038 c 0.25,4.19 0.53,8.45 -0.32,12.6 -2.18,11.84 -4.84,23.59 -7.32,35.38 -1.54,7.18 -1.39,14.66 0.07,21.84 -1.96,-0.56 -3.92,-1.14 -5.84,-1.81 -0.32,-0.11 -0.97,-0.34 -1.29,-0.45 0.12,3.46 -0.91,6.76 -1.69,10.09 -3.07,3.42 -5.9,7.2 -9.95,9.53 -10.97,6.86 -24.64,6.82 -37.02,4.93 -6.86,-1.37 -14,-3.61 -18.92,-8.86 -3,-3 -4.86,-6.87 -6.38,-10.77 -0.04,-3.37 0.01,-6.74 0.1,-10.1 l -0.41,-0.09 c -5.92,0.41 -11.97,0.78 -17.66,2.6 -3.62,1.01 -5.41,4.57 -8.24,6.74 -4.01,3.28 -7.48,7.14 -11.47,10.43 5.08,-6.84 9.75,-14.61 10.19,-23.33 -0.82,-10.57 -7.51,-19.29 -11.65,-28.71 3.43,3.72 6.2,8.5 11.19,10.33 10.91,4.57 23.08,4.39 34.7,4.21 l 0.87,-0.1 c 0.29,-2.28 0.46,-4.57 0.66,-6.84 1.4,7.66 0.74,15.43 -0.63,23.04 1.96,2.61 5.21,4.56 5.73,8.01 -1.14,-0.78 -2.24,-1.6 -3.29,-2.47 -1.27,-1.32 -2.44,-2.73 -3.63,-4.12 -1.74,0.01 -3.47,0.01 -5.21,0.02 -0.12,5.48 -0.8,11.6 3.11,16.07 0.68,0.71 1.38,1.41 2.11,2.09 1.01,0.88 2.06,1.73 3.16,2.52 0.6,0.37 1.79,1.09 2.38,1.45 1.35,0.74 2.74,1.37 4.17,1.95 2.91,1.07 5.84,2.12 8.87,2.82 7.88,1.38 16.01,1.46 23.87,-0.17 1.27,-0.26 2.51,-0.62 3.75,-1.01 1.58,-0.54 3.16,-1.08 4.73,-1.66 1.88,-0.78 3.64,-1.81 5.38,-2.85 0.62,-0.4 1.87,-1.18 2.49,-1.57 1.42,-1.19 2.72,-2.52 3.94,-3.91 2.48,-2.95 3.25,-6.8 3.4,-10.55 -1.16,-0.29 -2.31,-0.57 -3.47,-0.84 -1.36,-0.31 -2.72,-0.6 -4.09,-0.8 -0.28,0.21 -0.83,0.64 -1.11,0.85 l -1.45,1.17 c 0.09,-2.72 2.37,-4.42 4,-6.3 -3.65,-15 -1.63,-31.13 5.25,-44.91 0.65,-1.11 1.83,-1.73 2.78,-2.54 5.17,-4.14 9.56,-9.15 14.14,-13.91 z"
     id="path9057"
     inkscape:connector-curvature="0"
     style="fill:#000000" />
  <path
     style="fill:#120f0f"
     d="m 265.15852,368.94038 c -4.08088,0.23061 -5.81057,4.61141 -9.375,5.975 -4.13151,1.68443 -8.04796,4.29425 -12.625,4.575 -4.32389,0.28074 -8.3125,2.00792 -12.525,2.8 -6.10612,0.40105 -12.29452,-0.72829 -18.35,0.525 -3.5948,0.89235 -6.99159,-1.03371 -10.475,-1.525 -3.70619,-0.43117 -7.43368,-0.0191 -11.15,-0.35 -2.56195,-0.26069 -4.4637,-2.37889 -6.975,-2.8 -5.4378,0.17045 -8.0435,-5.50825 -12.175,-8.075 -0.0707,1.90501 -0.1305,3.80996 -0.1,5.725 1.5088,6.32664 3.11844,12.65918 5.65,18.675 4.72893,11.60051 11.37148,23.15088 10.45,36.125 l 0.25,-0.025 0.125,8.975 -0.5,4.85 1.225,1.35 c -0.0567,0.32753 -0.11556,0.64803 -0.175,0.975 1.98472,2.61688 5.27344,4.59089 5.8,8.05 1.11388,0.68179 2.25036,1.28345 3.425,1.875 l 2.025,0.925 c 3.048,1.45381 6.39412,2.13317 9.675,2.825 6.46053,1.41371 13.20972,1.09873 19.65,-0.325 2.23789,-0.50132 4.47823,-1.06287 6.625,-1.875 1.33666,-0.5715 2.63358,-1.22342 3.95,-1.825 1.43791,-0.71187 2.82348,-1.54268 4.15,-2.425 0.0608,-0.0502 0.16409,-0.1499 0.225,-0.2 0.0911,-2.72717 2.39944,-4.44004 4.05,-6.325 -3.69607,-15.03955 -1.64183,-31.20867 5.325,-45.025 0.65821,-1.11293 1.83802,-1.73787 2.8,-2.55 5.08336,-9.57519 7.39467,-20.30213 9.025,-30.9 z"
     id="path9021"
     inkscape:connector-curvature="0" />
</svg>
